# xmcd
#
# Track frame offsets: 
#        150
#        19514
#        33137
#        45573
#        60229
#        72257
#        83708
#        95235
#        106136
#        120140
#        129774
#        142187
#        155377
#        168694
#        181785
#        194864
#        207775
#        221189
#        234047
#        247379
#        260002
#        271692
#        286637
#        299393
#        309824
#        323510
#
# Disc length: 4565 seconds
#
# Revision: 1
# Processed by: cddbd v1.5.2PL0 Copyright (c) Steve Scherf et al.
# Submitted via: ExactAudioCopyFreeDBPlugin 1.0
#
DISCID=6711d31a
DTITLE=Leadbelly - Important Recordings 1934-1949 [Disc D] Leadbelly^ 
DTITLE=The Last Years, 1943-1949
DYEAR=2006
DGENRE=Blues
TTITLE0=John Hardy
TTITLE1=Where Did You Sleep Last Night
TTITLE2=Pretty Flowers in Your Backyard
TTITLE3=In New Orleans
TTITLE4=Outskirts of Town
TTITLE5=Mother's Blues (Little Children Blues)
TTITLE6=In the Evenin' When the Sun Goes Down
TTITLE7=Jim Crow Blues
TTITLE8=Mr. Hitler
TTITLE9=Corn Bread Rough
TTITLE10=Ella Speed
TTITLE11=Rock Island Line
TTITLE12=Tell Me Baby
TTITLE13=Take This Hammer
TTITLE14=Irene (Goodnight Irene)
TTITLE15=On a Christmas Day
TTITLE16=Backwater Blues
TTITLE17=Eagle Rock Rag
TTITLE18=Sweet Mary Blues
TTITLE19=Grasshoppers in My Pillow
TTITLE20=Diggin' My Potatoes
TTITLE21=Defense Blues
TTITLE22=Easy Rider
TTITLE23=Pigmeat
TTITLE24=Howard Hughes
TTITLE25=Shine on Me
EXTD=
EXTT0=
EXTT1=
EXTT2=
EXTT3=
EXTT4=
EXTT5=
EXTT6=
EXTT7=
EXTT8=
EXTT9=
EXTT10=
EXTT11=
EXTT12=
EXTT13=
EXTT14=
EXTT15=
EXTT16=
EXTT17=
EXTT18=
EXTT19=
EXTT20=
EXTT21=
EXTT22=
EXTT23=
EXTT24=
EXTT25=
PLAYORDER=
